<svg width="512" height="512" viewBox="0 0 512 512" fill="none" xmlns="http://www.w3.org/2000/svg">
<g clip-path="url(#clip0_683_7)">
<path d="M329.137 400.851C329.137 441.103 361.886 473.734 402.284 473.734C442.683 473.734 475.432 441.103 475.432 400.851C475.432 360.599 442.683 327.968 402.284 327.968C361.886 327.968 329.137 360.599 329.137 400.851Z" fill="black"/>
<path d="M-0.00109863 127.543C-0.00109863 197.984 57.3091 255.087 128.005 255.087C198.701 255.087 256.011 197.984 256.011 127.543C256.011 57.1031 198.701 0 128.005 0C57.3091 0 -0.00109863 57.1031 -0.00109863 127.543Z" fill="black"/>
<path d="M314.501 123.954C314.501 178.295 358.712 222.346 413.249 222.346C467.787 222.346 511.998 178.295 511.998 123.954C511.998 69.6141 467.787 25.5626 413.249 25.5626C358.712 25.5626 314.501 69.6141 314.501 123.954Z" fill="black"/>
<path d="M36.5398 413.611C36.5398 467.952 80.7511 512.003 135.288 512.003C189.826 512.003 234.037 467.952 234.037 413.611C234.037 359.271 189.826 315.219 135.288 315.219C80.7511 315.219 36.5398 359.271 36.5398 413.611Z" fill="black"/>
</g>
<defs>
<clipPath id="clip0_683_7">
<rect width="512" height="512" fill="white"/>
</clipPath>
</defs>
</svg>
